<svg xmlns="http://www.w3.org/2000/svg" viewBox="0 0 708.66 708.66"><defs><style>.a{fill:#1e404e;}.b{fill:#fff;}.c{fill:#ec008c;}</style></defs><title>iconmaplogo</title><path class="a" d="M167.24,0H700.66a8,8,0,0,1,8,8V643.46a65.2,65.2,0,0,1-65.2,65.2H8a8,8,0,0,1-8-8V167.24A167.24,167.24,0,0,1,167.24,0Z"/><path class="b" d="M629.49,491.3c-16.6,0-25.4-13.34-33.92-26.25-13.59-20.61-30.52-46.27-85-46.27-39.55,0-55.72,20.81-71.36,40.93C427.16,475.24,414.68,491.3,393,491.3c-20.9,0-34.71,0-45.06-8.81-11.15-9.48-13.27-24.69-13.27-49.42V209.8c0-36.44-40.46-39.27-52.86-39.27H145c-21.75,0-46.71,6.16-46.71,54.26V330.5c0,53.76,17.91,63.22,55.54,63.22h145.1a13.49,13.49,0,1,1,0,27H153.79c-57.84,0-82.52-27-82.52-90.2V224.79c0-52.39,26.17-81.25,73.69-81.25h136.8c36.83,0,79.85,17.36,79.85,66.26V433.07c0,21.21,2,27.41,3.76,28.87,2.8,2.38,14.83,2.38,27.58,2.38,8.13,0,14.47-7.65,25-21.16,16.85-21.68,39.91-51.36,92.67-51.36,69,0,93.1,36.55,107.51,58.39,3,4.59,9.32,14.13,11.39,14.13a6.88,6.88,0,0,0,1.52-.14c.41-.67,2-4,1.66-14.49-.33-9.93-2.25-22.77-4.28-36.36-1.19-7.94-2.41-16.16-3.46-24.63-5.31-42.76-20.54-56.09-39.82-72.95l-.42-.37c-9.93-8.69-15.41-24.89-22.33-45.39-12-35.41-22.74-62.5-43.14-62.5h-65c-18.43,0-29.71,2.71-35.52,8.52s-8.51,17.09-8.51,35.52V397.27a13.5,13.5,0,0,1-27,0V251.53c0-51.11,19.91-71,71-71h65c41.38,0,57.17,46.73,68.7,80.84,4.49,13.29,10.07,29.82,14.54,33.72l.42.37c20.77,18.17,42.25,37,48.82,89.94,1,8.14,2.22,16.18,3.38,24,4.85,32.51,8.68,58.19-3.73,72.59C647.67,486.21,640.88,491.3,629.49,491.3Z"/><path class="b" d="M513.47,583.06A74.54,74.54,0,1,1,588,508.52,74.63,74.63,0,0,1,513.47,583.06Zm0-122.09A47.56,47.56,0,1,0,561,508.52,47.6,47.6,0,0,0,513.47,461Z"/><path class="b" d="M513.47,542.15a33.63,33.63,0,1,1,33.63-33.63A33.67,33.67,0,0,1,513.47,542.15Zm0-40.27a6.65,6.65,0,1,0,6.64,6.64A6.65,6.65,0,0,0,513.47,501.88Z"/><path class="b" d="M196.42,583.06A74.54,74.54,0,1,1,271,508.52,74.62,74.62,0,0,1,196.42,583.06Zm0-122.09A47.56,47.56,0,1,0,244,508.52,47.6,47.6,0,0,0,196.42,461Z"/><path class="b" d="M196.42,542.15a33.63,33.63,0,1,1,33.63-33.63A33.67,33.67,0,0,1,196.42,542.15Zm0-40.27a6.65,6.65,0,1,0,6.64,6.64A6.65,6.65,0,0,0,196.42,501.88Z"/><path class="b" d="M426.43,222.82v70.83s125.92,18,132.67,18-27-87.69-32.61-88.82S426.43,222.82,426.43,222.82Z"/><rect class="c" x="113.31" y="290" width="84.04" height="84.04"/><rect class="c" x="136.92" y="221.42" width="60.43" height="60.43"/><rect class="c" x="205.33" y="258.71" width="115.33" height="115.33"/><rect class="c" x="205.33" y="209.48" width="40.89" height="40.89"/></svg>